<?xml version="1.0" encoding="UTF-8" standalone="no"?>
<!-- Created with Inkscape (http://www.inkscape.org/) -->

<svg
   inkscape:export-ydpi="96"
   inkscape:export-xdpi="96"
   inkscape:export-filename="../github-owns/lvbp-project/web/public/logo-tigres.svg"
   xml:space="preserve"
   sodipodi:docname="logo-bravos.svg"
   viewBox="0 0 277.3204 274.32032"
   height="274.32031"
   width="277.3204"
   id="svg32"
   version="1.1"
   xmlns:inkscape="http://www.inkscape.org/namespaces/inkscape"
   xmlns:sodipodi="http://sodipodi.sourceforge.net/DTD/sodipodi-0.dtd"
   xmlns:xlink="http://www.w3.org/1999/xlink"
   xmlns="http://www.w3.org/2000/svg"
   xmlns:svg="http://www.w3.org/2000/svg"><defs
     id="defs36"><color-profile
       name="Artifex-PS-Gray-Profile"
       xlink:href="file:///usr/share/color/icc/ghostscript/ps_gray.icc"
       id="color-profile2480" /><color-profile
       name="Artifex-CMYK-SWOP-Profile"
       xlink:href="file:///usr/share/color/icc/ghostscript/default_cmyk.icc"
       id="color-profile2482" /></defs><sodipodi:namedview
     id="namedview34"
     pagecolor="#ffffff"
     bordercolor="#666666"
     borderopacity="1.0"
     inkscape:showpageshadow="2"
     inkscape:pageopacity="0.0"
     inkscape:pagecheckerboard="0"
     inkscape:deskcolor="#d1d1d1"
     showgrid="false"
     inkscape:zoom="2"
     inkscape:cx="137"
     inkscape:cy="114.5"
     inkscape:window-width="1920"
     inkscape:window-height="1011"
     inkscape:window-x="0"
     inkscape:window-y="32"
     inkscape:window-maximized="1"
     inkscape:current-layer="g38" /><g
     inkscape:groupmode="layer"
     inkscape:label="Image"
     id="g38"
     transform="translate(-15.851737,-115.75165)"><path
       id="rect1015"
       style="fill:#25223d;fill-opacity:1;stroke-width:2.087;stroke-dasharray:none"
       d="m 169.71705,115.75165 -6.50195,0.8457 -6.50196,0.84766 -3.5332,1.43945 -3.5332,1.43945 -3.99219,3.4375 -3.99219,3.43945 -3.38086,6.28516 -3.38086,6.28516 -1.19726,-0.42383 -1.19727,-0.42188 -7.34375,-1.09765 -7.3418,-1.09571 -6.73242,-0.004 -6.73437,-0.002 -8.396493,1.14843 -8.39843,1.14649 -6.72266,1.79492 -6.72461,1.79492 -7.37891,2.92969 -7.3789,2.92969 -0.44141,0.40625 -0.44141,0.40625 2.12891,5.38866 2.13086,5.38868 -0.0137,0.74023 -0.0137,0.74024 -2.0586,-3.33203 -2.05859,-3.334 -2.08984,-2.02343 -2.09181,-2.02539 -3.48828,-1.22656 -3.49024,-1.22656 -4.36327,0.41406 -4.36134,0.41406 -2.86523,1.25196 -2.86328,1.25194 -3.27539,3.01563 -3.27539,3.01757 -1.90625,3.01369 -1.90625,3.01171 -2.00586,5.55665 -2.00586,5.55664 -0.91602,7.03711 -0.91601,7.0371 -0.45703,17.81641 -0.45704,17.81445 0.96289,10.98047 0.96094,10.98047 1.56446,8.61328 1.5625,8.61328 1.18164,4.07422 1.18359,4.07422 -0.37695,-2.96289 -0.37696,-2.96289 -0.89648,-12.58984 -0.89649,-12.5918 0.4004,-20.74414 0.40039,-20.74414 1.7539,-7.4082 1.75391,-7.40821 3.0332,-5.92578 3.03125,-5.92578 3.3125,-3.11914 3.31445,-3.11719 3.45119,-1.67578 3.45117,-1.67383 5.63085,-0.0234 5.63087,-0.0215 3.92773,2.12695 3.92969,2.12696 -0.51367,-2.52149 -0.51367,-2.51953 1.8125,-0.15625 1.81445,-0.15625 8.84765,-2.88281 8.84766,-2.88478 0.40234,-4.33984 0.40235,-4.34179 1.5293,3.14453 1.53125,3.14452 h 1.1289 1.13086 l 5.61133,-0.85351 5.609373,-0.85352 -0.42968,-4.51756 -0.43164,-4.51758 1.66211,4.21289 1.66015,4.21094 10.60742,0.0527 10.60938,0.0527 3.08008,0.67187 3.08007,0.66992 0.34375,0.31836 0.34571,0.31836 -1.26367,5.1504 -1.26172,5.15039 -5.49219,1.30274 -5.49219,1.30273 -5.62109,2.48047 -5.6211,2.48242 -0.5,-3.36523 -0.5,-3.36524 v -3.57422 -3.57618 l -1.35546,-2.61719 -1.35547,-2.61718 h -0.66602 -0.66406 l 0.37891,2.77734 0.38085,2.77734 0.45899,7.9629 0.45898,7.96485 h -0.70507 -0.70704 l -5.662113,4.3789 -5.66406,4.37891 -0.45898,-2.71289 -0.46094,-2.71289 -0.46289,-7.03711 -0.46289,-7.03711 -0.90625,-3.88867 -0.9043,-3.88868 h -0.94336 -0.94531 l -0.39258,0.36132 -0.39453,0.36329 1.03516,7.23047 1.03515,7.23047 0.0293,8.41211 0.0293,8.41211 -2.30664,2.69922 -2.30469,2.69922 -2.70508,4.43555 -2.70508,4.43554 -2.18359,5.56446 -2.18359,5.5664 -0.0449,-10.73828 -0.0449,-10.74023 -2.21289,-5.92774 -2.21094,-5.92968 -0.2207,11.87304 -0.2207,11.875 1.96289,7.12305 1.96289,7.125 -0.80274,5.81836 -0.80273,5.81836 0.51172,5.18554 0.51172,5.18555 1.57422,6.20508 1.57421,6.20508 3.19141,6.27148 3.19141,6.27344 3.54687,4.56055 3.54688,4.56054 5.51758,4.85938 5.51953,4.86133 3.619143,2.26367 3.62109,2.26367 4.82617,2.2168 4.82617,2.21875 4.11133,1.24023 4.11328,1.24024 5.13672,1.07031 5.13867,1.07226 11.26172,-0.27929 11.25977,-0.2793 5.89258,-1.57617 h 0.002 l 5.89258,-1.57813 5.13086,-2.14257 5.13281,-2.14258 4.64453,-2.83985 4.64453,-2.83984 5.04688,-4.34766 5.04687,-4.34765 3.73828,-4.54102 3.73633,-4.54101 3.4375,-6.66797 3.4375,-6.66602 1.27149,-4.56836 1.27148,-4.56836 0.72461,-6.54297 0.72266,-6.54492 -0.7461,-6.75195 -0.74609,-6.75 4.39258,-10.08008 4.39062,-10.08008 3.65625,-6.5039 3.6543,-6.50196 3.61914,-4.05273 3.61914,-4.05078 1.23633,-3.34375 1.23633,-3.34375 0.47656,-3.72461 0.47461,-3.72656 -3.26953,-10.23633 -3.26953,-10.23828 -1.47657,-2.32618 -1.47461,-2.32617 -4.11523,-3.08984 -4.11523,-3.08984 -4.70118,-1.64649 -4.70117,-1.64648 -4.42383,-0.0996 -4.42382,-0.0996 -3.70508,1.68164 -3.70313,1.67969 -2.92969,2.39453 -2.92968,2.39258 2.13086,7.18164 2.1289,7.17968 3.36133,-2.53711 3.36133,-2.53515 3.89844,-1.58789 3.89648,-1.58789 4.49805,0.43164 4.49609,0.43359 5.38086,1.53125 5.37891,1.5293 2.54492,1.9707 2.54297,1.97266 -0.46485,3.62108 -0.46679,3.62305 -1.90625,3.83204 -1.90625,3.83203 -3.37891,3.5918 -3.37891,3.59179 -4.50781,8.63086 -4.50781,8.63086 -3.01758,7.32227 -3.01953,7.32226 -0.53125,-1.54492 -0.5332,-1.54492 -3.83399,-5.40625 -3.83398,-5.4082 -4.55469,-4.52735 -4.55273,-4.52734 -4.04493,-2.50977 -4.04296,-2.50976 0.45898,-1.79688 0.45898,-1.79882 3.54493,-7.12305 3.54492,-7.12306 1.23047,-3.20898 1.23047,-3.21093 -0.002,-2.31445 v -2.31446 l -2.08789,-7.03711 -2.08984,-7.03711 -1.94922,-3.81054 -1.95117,-3.8086 -3.4961,-2.96875 -3.49414,-2.96679 -4.52343,-0.93164 z m -12.19922,16.52929 h 13.71484 13.71485 l 1.29687,1.82227 1.29688,1.82031 -0.56641,2.375 -0.56641,2.375 -2.1914,4.50781 -2.19141,4.50782 -2.2832,6.29686 -2.28125,6.29689 -0.86328,3.70312 -0.86328,3.70313 -6.46289,-2.375 -6.46289,-2.37696 -7.11524,-1.14258 -7.11523,-1.14257 h -5.12305 -5.12305 v -1.03907 -1.04101 l 1.91407,-5.21095 1.91601,-5.21288 2.84766,-4.69141 2.84961,-4.6914 4.83007,-4.24219 z m 82.16406,11.85157 0.0527,0.92578 0.0527,0.92578 2.16016,5.84764 2.1582,5.84766 4.9043,1.61134 4.90625,1.61133 2.73633,1.46679 2.73632,1.4668 0.25586,2.82031 0.25391,2.81836 -1.29883,2.98828 -1.29687,2.98828 -2.44922,3.27735 -2.44922,3.2793 -3.9082,7.54492 -3.90821,7.54687 -2.81445,7.77735 -2.81641,7.77929 -2.02734,9.25977 -2.02539,9.25976 -0.9668,10.41407 -0.96484,10.41601 2.29297,5.79102 2.29297,5.79101 0.54101,-1.39062 0.54102,-1.39063 0.51953,-8.51953 0.51953,-8.51953 1.26172,-6.66601 1.26367,-6.66797 1.96289,-5.40235 1.96094,-5.40429 4.82812,-10.52344 4.82617,-10.52344 2.80469,-4.07422 2.80664,-4.07422 1.39649,-2.59179 1.39453,-2.59375 -0.082,-6.29688 -0.082,-6.29492 -2.60743,-6.66797 -2.60937,-6.66601 -1.875,-3.41408 -1.875,-3.41211 -2.22461,-2.43553 -2.22266,-2.4336 -4.05468,-1.73828 -4.05469,-1.73828 -1.4082,-0.008 z m 22.52149,20.57812 v 0.67188 0.66992 l 2.28125,6.25195 2.28125,6.25 5.96289,1.86719 5.96484,1.86523 3.82617,2.07031 3.82813,2.07032 1.40039,1.97656 1.40234,1.97852 -0.14648,7.80273 -0.14453,7.80273 -2.09375,10.3711 -2.09375,10.37109 -3.22852,11.48242 -3.23047,11.48243 -3.61719,11.11132 -3.61523,11.11133 -5.92773,16.66797 -5.92579,16.66797 -3.375,9.62891 -3.37695,9.63085 -3.94336,7.72071 -3.94336,7.7207 -5.14453,7.0957 -5.14453,7.09375 -5.19922,4.73243 -5.20117,4.73046 -2.11328,1.18165 -2.11328,1.18164 v 0.75195 0.75195 l 2.5,6.90821 2.49804,6.91015 1.72461,-1.40234 1.72266,-1.40039 5.93164,-4.76563 5.93164,-4.76367 3.42578,-4.44531 3.42578,-4.44531 2.90235,-5.3379 2.90234,-5.33789 3.18359,-7.36132 3.1836,-7.35938 8.14258,-23.22851 8.14062,-23.23047 4.2793,-12.96289 4.27734,-12.96485 2.86133,-10 2.86133,-10 1.83984,-8.14844 1.83985,-8.14843 0.0137,-14.44532 0.0117,-14.44531 -1.85547,-5.90039 -1.85352,-5.90039 -2.45898,-4.24805 -2.45899,-4.24804 -3.66406,-3.42383 -3.66601,-3.42383 -4.53907,-2.10937 -4.53906,-2.10938 -2.9668,-0.51367 z m -85.26172,7.41406 1.26953,0.44922 1.27148,0.44727 4.36133,2.66797 4.36133,2.66601 0.49219,0.73242 0.49218,0.73243 -0.87695,0.80664 -0.87695,0.80664 -1.48828,-1.24219 -1.49024,-1.24219 h -1.00781 -1.00781 l 1.74023,2.59375 1.74024,2.5918 -1.35352,0.47851 -1.35351,0.47852 -0.71094,-1.0332 -0.70899,-1.03321 -0.26172,-0.6875 -0.26171,-0.6875 -1.01563,0.57813 -1.01367,0.57812 0.50586,2.75977 0.50586,2.75976 -1.12696,0.86133 -1.1289,0.86328 -0.96875,-1.95898 -0.96875,-1.95898 -0.94531,0.87109 -0.94532,0.86914 0.25,2.67773 0.25,2.67579 -1.07617,0.6289 -1.07617,0.62891 -0.60352,0.0117 -0.60351,0.01 v -1.35742 -1.35742 l -0.50781,-0.46875 -0.50782,-0.4668 -1.50195,0.74024 -1.50391,0.74023 v 3.22852 3.22851 l -1.27929,0.45117 -1.2793,0.45313 -0.73047,-0.41602 -0.73242,-0.41797 v -1.82617 -1.82812 l -2.44727,1.16601 -2.44921,1.16602 -0.7129,1.63086 -0.71484,1.63086 -0.44922,1.94922 -0.44922,1.94921 -1.61718,0.38868 -1.61719,0.39062 v -1.74023 -1.73828 l -0.75195,-0.42774 -0.75,-0.42773 -3.27149,1.20508 -3.26953,1.20507 v 3.17383 3.17383 l -1.27344,0.44922 -1.27148,0.45117 h -0.33594 -0.33789 v -2.96484 -2.96289 h -0.83008 -0.83008 l -2.70507,1.04101 -2.70508,1.04102 -0.55664,3.0332 -0.55664,3.0332 h -1.13672 -1.13477 v -3.04882 -3.04883 l -1.81055,0.44531 -1.81054,0.44727 -0.97266,0.01 -0.97265,0.0117 -0.96485,2.96289 -0.96289,2.96289 h -1.08008 -1.07812 v -2.67187 -2.67188 l -1.27344,0.44922 -1.27148,0.44922 h -1.11914 -1.11719 l -0.67578,2.40625 -0.67774,2.40625 -1.35742,0.24219 -1.35742,0.24023 -0.084,-0.60937 v -0.002 l -0.0859,-0.60937 0.14648,-2.03711 0.14649,-2.03711 h -2.29883 -2.29688 l -0.91015,2.22265 -0.91211,2.22266 h -1.33985 -1.33984 l 0.5293,-2.22266 0.53125,-2.22265 h -1.57618 -1.57421 l -1,2.22265 -1.000003,2.22266 h -1.19922 -1.20118 l 0.35352,-2.22266 0.35547,-2.22265 h -1.33984 -1.3418 l -0.91602,1.85156 -0.91601,1.85156 h -1.08399 -1.08398 l 0.35351,-2.22265 0.35352,-2.22071 h -1.24219 -1.24414 l -0.51172,1.48047 -0.50976,1.48242 h -1.58203 -1.58399 l 0.83203,-1.43359 0.83399,-1.43164 v -0.41992 -0.41992 h -1.52149 -1.52148 l -0.51367,1.88281 -0.51368,1.88281 -0.7832,-0.44726 -0.7832,-0.44532 0.49219,-1.80664 0.49218,-1.80664 h -1.09961 -1.10156 l -1.02344,1.50977 -1.02343,1.51172 -0.68555,-0.39063 -0.68555,-0.39062 0.19727,-2.3086 0.19726,-2.30859 0.86524,-0.49414 0.86719,-0.49219 0.83398,-2.02148 0.83594,-2.02344 h 0.66211 0.66211 l -0.32813,2.59375 -0.32812,2.5918 h 1.29492 1.29297 v -2.6543 -2.6543 l 1.00586,0.30469 1.00586,0.30469 0.25,2.7207 0.25,2.7207 h 0.75586 0.75585 v -2.59375 -2.59179 h 1.10352 1.10352 l 0.51367,2.96289 0.51562,2.96289 h 1.14649 1.14648 l -0.45703,-2.59375 -0.45703,-2.5918 h 1.27539 1.27539 l 0.52734,2.5918 0.5293,2.59375 h 1.58203 1.58399 l -0.53125,-2.22266 -0.5293,-2.22265 h 1.20703 1.207033 l 0.50977,2.14453 0.51172,2.14453 2.0332,0.35742 2.03516,0.35742 -0.47071,-1.39062 -0.4707,-1.39063 -0.49609,-1.48242 -0.4961,-1.48047 h 1.58008 1.58203 l 1.44922,2.96289 1.45117,2.96289 h 2.36719 2.36719 l -2.1211,-3.33398 -2.12109,-3.33203 h 1.50781 1.50781 l 2.58594,2.96289 2.58594,2.96289 h 1.4375 1.43555 l 0.51562,-0.47461 0.51367,-0.47461 -2.40234,-2.79297 -2.40234,-2.79492 1.01562,-0.34766 1.01758,-0.34765 3.68164,3.27539 3.67969,3.27734 2.28515,-0.80078 2.28321,-0.79883 -3.08594,-2.91016 -3.08399,-2.91015 1.40235,-0.49414 1.40234,-0.4961 3.48828,3.15235 3.48828,3.15234 2.9375,-0.64453 2.9375,-0.64453 -2.82421,-3.03711 -2.82618,-3.03906 0.92579,-0.85157 0.92382,-0.85156 h 0.81446 0.81445 l 3.43555,3.10742 3.4375,3.10547 2.94726,-1.29492 2.94727,-1.29492 -3.12891,-2.95313 -3.13086,-2.95312 1.18946,-0.67774 1.1914,-0.67773 3.62891,1.91797 3.63086,1.91797 0.72265,0.60547 0.72266,0.60351 2.29297,-1.09179 2.29297,-1.0918 v -0.66797 -0.66992 l -2.60352,-1.87696 -2.60547,-1.87695 1.04297,-0.95312 1.04297,-0.95508 4.04688,2.07422 4.04492,2.07226 1.13672,-0.86718 1.13476,-0.86719 v -0.48242 -0.48243 l -2.81445,-1.39648 -2.81641,-1.39453 v -0.64844 -0.64648 l 1.34571,-0.47657 1.3457,-0.47461 3.17187,1.68165 3.17383,1.68164 1.14063,-1.05079 1.14257,-1.05273 -2.84375,-1.41016 -2.8457,-1.41211 v -0.5957 -0.5957 l 1.04883,-0.36914 1.04687,-0.3711 3.00977,1.15821 3.00977,1.1582 0.76757,-0.4375 0.76954,-0.4375 v -0.60742 -0.60742 l -2.41407,-0.92188 -2.41211,-0.91992 v -0.50195 -0.50391 l 0.92188,-0.84766 0.92187,-0.84961 3.05664,1.43555 3.05469,1.4375 0.47266,-0.70508 0.47265,-0.70312 -2.43945,-1.16211 -2.43945,-1.16211 v -1.16992 z m 5.63086,41.3125 1.30859,1.72071 1.30859,1.71875 2.31641,-0.42579 2.31836,-0.42773 -1.26953,1.7832 -1.26758,1.78321 1.36719,1.92187 1.36914,1.92188 -2.30859,-0.80664 -2.30665,-0.8086 -1.3457,1.5293 -1.3457,1.53125 h -0.49024 -0.49023 l 0.49609,-1.82031 0.4961,-1.82032 -2.69141,-1.02929 -2.69336,-1.02735 2.61524,-0.54492 2.61328,-0.54297 v -2.32812 z m 15.31836,0.69922 1.48047,1.77344 1.48046,1.77148 2.24414,-0.51757 2.24415,-0.51954 -1.28516,1.8086 -1.28711,1.80664 1.13867,1.38281 1.13672,1.38477 0.0254,0.53711 0.0254,0.53711 -2.17578,-0.76172 -2.17578,-0.76368 -1.42578,1.70704 -1.42578,1.70703 -0.0176,-2.01367 -0.0176,-2.01368 -2.21289,-1.07031 -2.21094,-1.07226 2.21094,-0.51368 2.21289,-0.51562 0.0176,-2.32617 z m -30.60157,0.041 1.23438,1.62304 1.23437,1.62305 2.58594,-0.46094 2.58789,-0.45898 -1.57422,1.63672 -1.57226,1.63476 0.96875,1.42969 0.9707,1.43164 v 0.39453 0.39453 l -2.01172,-0.46484 -2.01367,-0.4668 -1.58008,1.74805 -1.58008,1.74805 -0.0273,-2.34571 -0.0273,-2.3457 -2.21094,-0.7168 -2.21289,-0.71679 1.20703,-0.38477 1.20703,-0.38672 1.40625,-0.41797 1.4082,-0.41796 v -2.03907 z m -17.66015,2.18164 1.43554,1.71679 1.4336,1.7168 2.29687,-0.5293 2.29688,-0.53125 -1.32422,1.73829 -1.32227,1.74023 1.26368,1.77734 1.26562,1.77735 -2.40625,-0.48633 -2.4043,-0.48633 -1.28515,1.68945 -1.28516,1.68946 v -2.24414 -2.24414 l -2.21289,-0.77344 -2.21094,-0.77344 2.21094,-0.83398 2.21289,-0.83203 0.0176,-2.05664 z m -15.5293,4.44531 0.13086,0.74023 0.13086,0.74024 1.08203,1.3125 1.08203,1.31445 2.10938,-0.74023 2.11133,-0.73828 -0.0273,0.53711 -0.0254,0.53711 -1.13672,1.38281 -1.13867,1.38476 1.25586,1.76368 1.25391,1.76171 -2.40235,-0.4414 -2.40234,-0.44336 -1.3086,1.7207 -1.30859,1.7207 v -2.37304 -2.37305 l -2.00976,-0.46484 -2.01172,-0.46485 v -0.60937 -0.60938 l 1.81054,-0.23632 1.8086,-0.23633 0.49804,-2.59375 z m -15.02148,8.14844 1.625,2.0039 1.625,2.00391 1.96875,-0.68945 1.9707,-0.68946 v 0.47852 0.48047 l -1.33203,1.35351 -1.33008,1.35547 1.33008,1.35352 1.33203,1.35547 v 0.47265 0.47461 l -1.81055,-0.63867 -1.81054,-0.63672 -1.8086,1.53125 -1.81054,1.53125 v -2 -1.99804 l -2.21094,-0.8125 -2.21289,-0.81055 2.21289,-0.71289 2.21094,-0.71485 0.0254,-2.3457 z m -12.4961,8.14844 1.28711,1.6875 1.28516,1.68554 2.12109,-0.74219 2.1211,-0.74218 v 0.47851 0.47852 l -1.3125,1.33594 -1.3125,1.33593 1.34765,1.89258 1.34571,1.89258 -2.07618,-0.47852 -2.07812,-0.48046 -1.57617,1.3125 -1.57618,1.31445 v -1.95313 -1.95117 l -2.01171,-0.46484 -2.00977,-0.46485 v -0.60937 -0.60938 l 1.80469,-0.23632 1.80469,-0.23633 0.41796,-2.22266 z m 56.78125,7.68359 0.95703,0.31055 0.95899,0.31054 -0.24024,2.72266 -0.23828,2.72266 2.25,-0.4961 2.25,-0.49609 0.54102,-0.27539 0.54101,-0.27735 0.52735,-2.21289 0.52929,-2.21484 h 1.63477 1.63281 l -0.52734,2.59375 -0.5293,2.5918 h 2.35352 2.35156 l 1,-2.22266 0.99805,-2.2207 h 1.10937 1.10938 v 2.2207 2.22266 h 1.27539 1.27734 l 0.91016,-2.22266 0.91211,-2.2207 h 1.41211 1.41211 l -0.48243,2.2207 -0.48242,2.22266 h 1.64453 1.64649 l 0.53906,-2.26172 0.53906,-2.26172 0.93164,0.30664 0.93164,0.30469 -0.20312,2.32617 -0.20508,2.32812 h 1.23047 1.22852 l 0.75976,-1.83789 0.75781,-1.83789 1.22657,0.4336 1.22656,0.43359 -0.48242,1.77344 -0.48438,1.77539 h 1.16406 1.16602 l 0.93555,-1.89453 0.9375,-1.89258 0.80273,0.45703 0.80274,0.45703 -0.80665,1.38672 -0.80664,1.38867 v 0.41992 0.41797 h 1.17969 1.17774 l 0.86132,-1.48047 0.86133,-1.48242 h 0.81641 0.81445 l -0.39062,3.14844 -0.39258,3.14844 -0.0508,0.18554 -0.0508,0.18555 h -1.10547 -1.10547 l -0.48242,2.2207 -0.48243,2.22266 h -0.92968 -0.92969 l 0.44531,-2.53516 0.44727,-2.53515 -1.14649,-0.4043 -1.14453,-0.4043 v 2.56836 2.57032 h -1.20703 -1.20703 v -2.51368 -2.51367 l -1.27734,-0.45117 -1.27735,-0.45117 0.56446,3.07617 0.56445,3.07617 -1.36328,-0.48242 -1.36328,-0.48047 h -0.33594 -0.33789 v -2.59375 -2.5918 h -1.20508 -1.20703 v 2.5918 2.59375 h -0.77344 -0.77344 l -0.86718,-2.96289 -0.86524,-2.96484 h -1.66406 -1.66406 l 0.37695,0.92773 0.37891,0.92578 0.5664,1.66602 0.56641,1.66601 h -1.09766 -1.09961 l -1.01758,-2.59179 -1.01953,-2.59375 h -1.95898 -1.95899 l 0.0293,0.55664 0.0293,0.55468 1.14844,1.85352 1.15039,1.85156 0.0273,0.55469 0.0293,0.55664 -1.40821,-0.006 -1.40625,-0.004 -1.83398,-2.95899 -1.83398,-2.95703 h -1.98829 -1.98632 v 0.35352 0.35156 l 1.60546,2.42578 1.60547,2.42578 0.004,0.55469 0.002,0.55664 h -1.13867 -1.13867 l -2.54883,-2.96289 -2.54687,-2.96485 h -1.94336 -1.94336 v 0.48633 0.48633 l 2.00976,2.42773 2.01172,2.42774 v 0.41992 0.41992 h -0.97461 -0.97461 l -3.36328,-3.03906 -3.36328,-3.03906 -2.58203,0.52148 -2.58203,0.52149 3.06054,2.88672 3.06055,2.88671 -0.9707,0.89258 -0.96875,0.89453 -3.44727,-3.11523 -3.44531,-3.11328 -1.98047,0.0117 -1.98047,0.01 -1.19726,0.69727 -1.19727,0.69726 2.71094,2.57618 2.71094,2.57617 -0.48243,1.16015 -0.48437,1.16016 h -1.0625 -1.06445 l -3.49024,-3.27539 -3.49023,-3.27539 -2.71094,1.1914 -2.70898,1.18946 v 0.46484 0.46485 l 2.41211,2.1289 2.41406,2.12891 v 0.55273 0.55274 l -1.59571,0.46484 -1.59375,0.4668 -3.24218,-2.40039 -3.24414,-2.40039 -2.99024,1.3125 -2.99023,1.31445 3.00195,2.5332 3.00195,2.53321 v 0.28125 0.27929 l -1.21679,0.43164 -1.2168,0.42969 -3.66211,-1.88281 -3.66211,-1.88281 -1.1543,0.88085 -1.15429,0.88282 v 0.5332 0.5332 l 2.80859,1.39258 2.8086,1.39453 -1.20704,1.11133 -1.20703,1.11133 -3.49609,-1.75781 -3.49414,-1.75782 -0.92188,0.52539 -0.92187,0.52344 v 0.58008 0.58203 l 2.8164,1.39649 2.81446,1.39453 v 0.49414 0.49219 l -1.25781,0.44531 -1.25782,0.44336 -2.32226,-1.10547 -2.32227,-1.10547 h -1.24609 -1.2461 v 0.97656 0.97656 l 2.39258,1.06055 2.39453,1.06055 -0.72265,1.06055 -0.72071,1.0625 -3.27539,-1.18555 -3.27343,-1.1836 -0.43555,0.64649 -0.43359,0.64844 2.43945,1.16015 2.43945,1.16211 v 0.72266 0.7207 h -1.01562 -1.01758 l -4.0293,-2.49805 0.002,-0.002 -4.029293,-2.5 -1.11524,-1.23633 -1.11328,-1.23632 0.91211,-0.83985 0.91211,-0.83984 1.490243,1.24219 1.49023,1.24218 h 0.94141 0.9414 v -0.57617 -0.57617 l -1.27539,-1.67774 -1.27734,-1.67773 1.02148,-1.13477 1.02344,-1.13476 1.13477,1.99609 1.13476,1.99414 1.16406,-1.07031 1.16211,-1.07226 -0.88476,-2.14258 -0.88477,-2.14453 1.43164,-0.96289 1.43164,-0.9629 0.59961,1.4961 0.60156,1.49805 h 1.29493 1.29297 l -0.23243,-2.96485 -0.23242,-2.96484 1.29492,-1.19141 1.29297,-1.1914 0.54883,2.29882 0.54883,2.29883 1.54687,-0.76172 1.54493,-0.76172 v -2.5664 -2.56641 l 1.81054,-1.66797 1.8086,-1.66601 0.25195,2.79883 0.25,2.80078 3.09375,-1.60157 3.0918,-1.59961 0.52539,-3.23632 0.52734,-3.23633 h 0.68945 0.68946 l 1.27343,-0.44922 1.27149,-0.44922 v 2.30078 2.30078 h 0.38672 0.38476 l 3.10547,-1.14453 3.10547,-1.14258 0.73242,-3.48046 0.73047,-3.48047 1.4082,-0.24414 1.40821,-0.2461 v 2.93946 2.9375 l 3.14062,-0.73438 3.14258,-0.73437 0.89063,-3.25977 0.89257,-3.26172 h 1.20508 1.20313 l -0.52149,3.00195 -0.52148,3.00391 2.32226,-0.47266 2.32227,-0.4707 0.85156,-0.23242 0.85352,-0.23047 1.0039,-3.08789 z m -70.021483,0.46484 1.56445,1.72852 1.56445,1.73047 2.63086,-0.52539 2.632823,-0.52539 -1.58789,1.63086 -1.587893,1.63085 1.32421,2.125 1.324223,2.125 -2.070313,-0.7246 -2.07031,-0.72461 -1.88867,1.63476 -1.89063,1.63477 v -2.27149 -2.27148 l -2.21094,-0.54102 -2.21289,-0.54297 2.21289,-0.71093 2.21094,-0.71094 0.0273,-2.3457 z m 12.011723,61.66407 v 41.20898 41.20898 h 2.81445 2.81641 v -16.29685 -16.29688 l 3.41797,-0.004 3.41796,-0.002 2.47852,-1.39257 2.47656,-1.39063 1.34375,-2.60742 1.34375,-2.60742 -0.004,-16.92578 -0.002,-16.92578 -1.56836,-2.36719 -1.5664,-2.36719 -2.11719,-1.27734 -2.11719,-1.27735 -6.36719,-0.33984 z m -89.285173,0.1914 v 41.48242 41.48438 h 11.66406 11.66408 v -3.33399 -3.33203 h -8.04494 -8.04296 v -38.15039 -38.15039 h -3.61915 z m 23.95314,0 0.46484,2.40625 0.46484,2.4082 3.67774,26.66797 3.67968,26.66797 1.57617,11.32617 1.57617,11.32422 v 0.71289 0.71289 h 3.21681 3.21875 v -0.91796 -0.91602 l 2.44921,-17.41797 2.45118,-17.41601 2.78515,-20.00196 2.78321,-20.00195 0.46679,-2.77734 0.4668,-2.77735 h -3.19922 -3.19922 l -0.4414,2.40625 -0.44336,2.4082 -3.40821,24.44532 -3.4082,24.44726 -0.48633,0.54102 -0.48438,0.54101 -3.46875,-25.35742 -3.4668,-25.35742 -0.42969,-2.03711 -0.42967,-2.03711 h -3.20704 z m 35.57031,0.74024 v 41.11328 41.11328 h 6.26562 6.26368 l 3.52929,-1.66602 3.5293,-1.66797 1.4668,-2.58007 1.46679,-2.58204 V 370.6735 359.7692 l -0.89258,-1.80468 -0.89257,-1.80469 -1.92188,-0.94727 -1.92187,-0.94726 v -0.56641 -0.5664 l 1.43359,-0.41797 1.43555,-0.41993 1.38086,-2.15234 1.3789,-2.15234 v -16.02735 -16.02734 l -1.61523,-2.91797 -1.61719,-2.91797 -2.36523,-1.12695 -2.36524,-1.12695 h -7.27929 z m 6.43555,5.92578 h 3.21679 3.2168 l 1.60937,1.48242 1.60938,1.48047 v 15.55664 15.55664 l -1.60938,1.48242 -1.60937,1.48047 h -3.2168 -3.21679 v -18.51953 z m 28.957033,0 h 3.17187 3.17188 l 1.25195,1.64648 1.25195,1.64649 -0.0117,15.20703 -0.0137,15.20703 -0.58984,0.81445 -0.5918,0.81445 -1.75586,0.85157 -1.75781,0.85156 h -2.0625 -2.06445 v -18.51953 z m -28.957033,42.96679 h 3.21679 3.2168 l 1.60937,1.48047 1.60938,1.48242 v 10.625 10.62696 l -1.4707,1.22656 -1.47266,1.22656 h -3.35352 -3.35546 v -13.33398 z"
       inkscape:export-filename="logo-lvbp-darken.svg"
       inkscape:export-xdpi="96"
       inkscape:export-ydpi="96" /></g></svg>
